<svg width="700" height="550" viewBox="0 0 700 550" fill="none" xmlns="http://www.w3.org/2000/svg">
<path d="M396.547 205.888C396.547 205.888 380.887 191.314 374.907 195.436C374.907 195.436 367.077 213.133 363.473 214.501C361.983 218.841 359.832 222.972 356.842 222.831C356.513 224.288 356.545 225.804 356.936 227.246C357.578 229.887 351.465 241.452 347.389 240.32C343.314 239.188 337.494 228.859 339.192 223.038C339.299 222.644 339.384 222.244 339.447 221.84C339.23 221.416 332.051 207.822 331.324 200.728C330.579 193.521 327.466 196.643 327.466 196.643C327.466 196.643 331.598 200.285 325.155 203.153C318.702 206.03 302.694 208.275 309.071 202.313C309.071 202.313 308.137 199.521 305.015 202.068C305.015 202.068 302.76 205.039 308.194 215.142C308.194 215.142 316.608 258.432 315.108 269.271C315.108 269.271 312.741 296.826 315.41 299.449C316.684 300.703 333.079 305.373 349.295 304.901C359.603 304.656 369.831 303.016 379.699 300.024L378.727 262.074C378.517 253.994 380.002 245.961 383.085 238.49L396.547 205.888ZM344.107 287.714C340.811 287.035 337.733 285.554 335.145 283.403C332.576 281.23 330.564 278.474 329.277 275.365C327.985 272.337 327.367 269.063 327.466 265.772C328.091 268.894 329.148 271.913 330.607 274.743C332.026 277.505 333.979 279.958 336.352 281.959C337.519 282.966 338.805 283.825 340.182 284.516C340.852 284.912 341.579 285.186 342.277 285.516C343.012 285.761 343.729 286.091 344.484 286.289C347.547 287.178 350.697 287.732 353.88 287.94C350.637 288.482 347.321 288.405 344.107 287.714Z" fill="black"/>
<path d="M365.87 205.341L365.822 205.36C366.143 199.436 363.134 186.654 363.134 186.654C363.134 186.654 347.088 187.437 344.909 186.87C344.909 186.87 340.126 186.776 340.588 201.209C340.588 201.209 335.569 196.408 336.711 202.436C336.918 203.53 337.135 204.483 337.362 205.303C327.787 199.172 339.333 173.852 339.381 176.06C339.457 176.745 339.771 177.383 340.267 177.862C342.248 180.088 345.333 177.654 348.097 176.692C348.654 176.494 349.191 176.324 349.72 176.173C351.793 175.589 353.973 175.484 356.093 175.868C358.214 176.253 360.218 177.115 361.955 178.39C363.692 179.665 365.116 181.319 366.118 183.226C367.12 185.134 367.674 187.245 367.737 189.399C367.934 194.777 367.304 200.154 365.87 205.341Z" fill="black"/>
<path d="M346.936 219.847C345.442 219.03 344.122 217.931 343.048 216.61C342.507 215.945 342.048 215.218 341.68 214.444C341.32 213.665 341.117 212.824 341.083 211.967C341.343 212.753 341.684 213.509 342.101 214.225C342.528 214.923 343.002 215.592 343.52 216.227C344.588 217.498 345.729 218.707 346.936 219.847Z" fill="black"/>
<path d="M351.606 221.708C352.022 221.855 352.458 221.939 352.899 221.955C353.333 221.998 353.766 222.057 354.204 222.113C354.638 222.187 355.078 222.257 355.517 222.369C355.975 222.473 356.419 222.628 356.842 222.831C355.946 223.123 354.993 223.197 354.063 223.045C353.595 222.977 353.137 222.848 352.703 222.662C352.465 222.586 352.245 222.462 352.056 222.298C351.868 222.134 351.715 221.933 351.606 221.708Z" fill="black"/>
<path d="M365.883 205.364C365.876 205.8 365.843 206.236 365.782 206.668C365.71 207.109 365.605 207.518 365.514 207.944L364.933 210.476C364.537 212.168 364.055 213.839 363.487 215.482C362.936 217.155 362.2 218.762 361.292 220.271C360.818 221.053 360.218 221.752 359.515 222.338C358.763 222.977 357.806 223.324 356.819 223.315L357.306 222.971C357.087 224.034 357.068 225.128 357.252 226.196C357.298 226.468 357.349 226.739 357.413 227.007C357.452 227.175 357.48 227.346 357.496 227.518C357.505 227.687 357.502 227.855 357.488 228.023C357.426 228.638 357.299 229.244 357.109 229.831C356.357 232.074 355.286 234.196 353.931 236.135C353.271 237.122 352.512 238.04 351.666 238.874C350.817 239.79 349.721 240.444 348.51 240.755C348.177 240.819 347.835 240.817 347.503 240.747C347.19 240.669 346.887 240.557 346.598 240.413C346.057 240.133 345.556 239.782 345.106 239.37C344.227 238.58 343.449 237.684 342.791 236.702C341.458 234.783 340.402 232.686 339.654 230.473C339.277 229.367 339.005 228.229 338.841 227.073C338.646 225.91 338.658 224.722 338.875 223.563C339.352 221.308 339.708 219.029 339.941 216.736C340.21 214.445 340.461 212.151 340.691 209.854L341.131 210.273C340.727 210.35 340.309 210.326 339.916 210.203C339.529 210.069 339.178 209.848 338.89 209.557C338.378 209.011 337.972 208.375 337.692 207.681C337.155 206.372 336.745 205.015 336.466 203.627C336.275 202.939 336.133 202.238 336.041 201.529C335.994 201.144 335.99 200.755 336.03 200.37C336.044 200.119 336.111 199.875 336.227 199.653C336.343 199.43 336.504 199.235 336.701 199.08C336.923 198.947 337.171 198.867 337.428 198.845C337.685 198.823 337.944 198.859 338.184 198.952C338.556 199.077 338.912 199.246 339.245 199.454C339.869 199.841 340.453 200.288 340.991 200.788L340.005 201.228C339.984 199.889 339.936 198.55 340.003 197.204C340.041 195.852 340.166 194.504 340.379 193.168C340.578 191.795 340.968 190.457 341.54 189.194C341.696 188.875 341.88 188.563 342.062 188.252C342.267 187.942 342.499 187.651 342.754 187.381C343.017 187.093 343.322 186.846 343.658 186.648C343.833 186.54 344.019 186.451 344.214 186.382C344.44 186.297 344.679 186.25 344.921 186.242L344.953 186.243L345.067 186.262L345.538 186.337L346.083 186.379C346.442 186.413 346.826 186.412 347.196 186.43C347.946 186.45 348.699 186.458 349.457 186.456L354.003 186.402C357.037 186.358 360.076 186.275 363.11 186.17L363.124 186.169C363.235 186.166 363.344 186.201 363.432 186.269C363.52 186.337 363.581 186.434 363.605 186.543C364.285 189.642 364.821 192.759 365.278 195.893C365.51 197.458 365.686 199.032 365.806 200.614C365.95 202.193 365.976 203.78 365.883 205.363C365.882 205.371 365.88 205.379 365.877 205.386C365.873 205.393 365.868 205.4 365.862 205.405C365.856 205.41 365.849 205.414 365.841 205.416C365.834 205.419 365.826 205.42 365.818 205.419C365.802 205.418 365.788 205.411 365.777 205.399C365.767 205.388 365.761 205.372 365.762 205.357C365.763 203.783 365.647 202.211 365.414 200.654C365.205 199.095 364.938 197.543 364.657 195.994C364.096 192.897 363.388 189.82 362.663 186.765L363.157 187.137C360.117 187.316 357.076 187.467 354.035 187.591C352.513 187.657 350.989 187.677 349.461 187.69C348.697 187.697 347.931 187.693 347.162 187.676C346.773 187.659 346.395 187.663 345.997 187.628L345.405 187.585L344.75 187.48L344.896 187.5C344.683 187.539 344.481 187.62 344.299 187.737C344.064 187.877 343.852 188.053 343.67 188.259C343.472 188.472 343.291 188.701 343.131 188.945C342.982 189.208 342.828 189.469 342.694 189.744C342.188 190.908 341.832 192.131 341.635 193.385C341.413 194.666 341.275 195.96 341.222 197.259C341.139 198.564 341.168 199.878 341.171 201.191V201.203C341.171 201.317 341.138 201.429 341.075 201.525C341.013 201.62 340.923 201.695 340.819 201.741C340.714 201.786 340.598 201.8 340.485 201.781C340.372 201.761 340.268 201.709 340.185 201.631C339.712 201.181 339.199 200.777 338.65 200.424C338.398 200.26 338.128 200.126 337.845 200.023C337.586 199.939 337.37 199.945 337.326 199.996C337.254 200.018 337.151 200.241 337.116 200.516C337.079 200.819 337.075 201.125 337.103 201.43C337.172 202.097 337.287 202.76 337.448 203.411C337.675 204.75 338.029 206.063 338.504 207.335C338.977 208.548 339.787 209.767 341.006 209.522C341.064 209.511 341.124 209.513 341.181 209.529C341.237 209.545 341.289 209.575 341.332 209.615C341.376 209.655 341.409 209.705 341.429 209.76C341.449 209.815 341.455 209.875 341.448 209.933L341.447 209.941C341.147 212.234 340.827 214.524 340.486 216.809C340.126 219.091 339.813 221.39 339.277 223.646C338.926 225.905 339.19 228.218 340.042 230.34C340.792 232.504 341.874 234.538 343.249 236.37C343.913 237.284 344.689 238.112 345.557 238.834C345.973 239.188 346.433 239.485 346.926 239.719C347.157 239.824 347.4 239.905 347.648 239.96C347.884 240.002 348.126 239.994 348.359 239.937C349.382 239.613 350.292 239.008 350.987 238.192C351.758 237.374 352.458 236.493 353.079 235.556C354.337 233.679 355.348 231.646 356.085 229.51C356.259 229.001 356.379 228.475 356.444 227.941C356.456 227.821 356.461 227.701 356.457 227.581C356.448 227.466 356.43 227.351 356.405 227.238C356.339 226.943 356.287 226.646 356.242 226.348C356.05 225.131 356.096 223.889 356.377 222.69C356.403 222.588 356.463 222.497 356.548 222.434C356.633 222.372 356.737 222.34 356.842 222.345L356.865 222.346C357.623 222.356 358.359 222.093 358.939 221.605C359.569 221.084 360.117 220.473 360.565 219.79C361.492 218.365 362.257 216.841 362.845 215.246C363.463 213.645 363.995 212.008 364.5 210.358L365.221 207.87C365.332 207.456 365.467 207.033 365.568 206.627C365.659 206.208 365.723 205.784 365.762 205.356C365.763 205.341 365.771 205.326 365.783 205.316C365.795 205.306 365.81 205.3 365.826 205.301C365.842 205.302 365.856 205.309 365.867 205.321C365.878 205.333 365.883 205.348 365.883 205.364L365.883 205.364Z" fill="black"/>
<path d="M365.34 196.773C364.78 196.493 364.259 196.22 363.739 195.983C363.25 195.745 362.73 195.574 362.195 195.475C361.7 195.386 361.19 195.437 360.722 195.623C360.204 195.867 359.724 196.187 359.3 196.573C359.453 195.934 359.828 195.37 360.359 194.983C360.939 194.582 361.653 194.424 362.348 194.545C362.996 194.666 363.605 194.944 364.12 195.356C364.626 195.734 365.042 196.217 365.34 196.773Z" fill="black"/>
<path d="M351.042 195.638C349.851 195.029 348.518 194.756 347.184 194.846C346.548 194.916 345.93 195.101 345.36 195.393C345.05 195.513 344.784 195.725 344.474 195.881C344.182 196.064 343.907 196.277 343.58 196.457C343.751 196.135 343.947 195.826 344.167 195.534C344.406 195.25 344.676 194.992 344.972 194.768C345.583 194.293 346.312 193.995 347.08 193.908C347.849 193.824 348.625 193.949 349.328 194.269C350.01 194.566 350.602 195.038 351.042 195.638Z" fill="black"/>
<path d="M359.496 205.411C359.421 205.884 359.217 206.328 358.907 206.693C358.597 207.059 358.192 207.332 357.737 207.482C357.283 207.644 356.795 207.691 356.318 207.619C355.854 207.557 355.415 207.372 355.047 207.083C355.514 206.989 355.924 206.959 356.316 206.883C356.691 206.82 357.06 206.724 357.417 206.595C357.775 206.472 358.118 206.311 358.443 206.117C358.806 205.9 359.157 205.664 359.496 205.411Z" fill="black"/>
<path d="M361.266 201.796C361.632 201.784 361.98 201.629 362.235 201.365C362.49 201.101 362.632 200.748 362.632 200.381C362.632 200.014 362.49 199.662 362.235 199.398C361.98 199.134 361.632 198.979 361.266 198.966C360.899 198.979 360.551 199.134 360.296 199.398C360.042 199.662 359.899 200.014 359.899 200.381C359.899 200.748 360.042 201.101 360.296 201.365C360.551 201.629 360.899 201.784 361.266 201.796Z" fill="black"/>
<path d="M348.818 201.646C349.185 201.633 349.532 201.478 349.787 201.214C350.042 200.95 350.184 200.598 350.184 200.231C350.184 199.864 350.042 199.511 349.787 199.247C349.532 198.983 349.185 198.828 348.818 198.816C348.451 198.828 348.104 198.983 347.849 199.247C347.594 199.511 347.451 199.864 347.451 200.231C347.451 200.598 347.594 200.95 347.849 201.214C348.104 201.478 348.451 201.633 348.818 201.646Z" fill="black"/>
<path d="M353.335 210.414C353.152 210.951 353.179 211.538 353.411 212.056C353.621 212.535 353.944 212.955 354.354 213.279C354.754 213.612 355.231 213.838 355.741 213.938C356.015 213.992 356.298 213.992 356.572 213.937C356.846 213.881 357.107 213.772 357.339 213.616C357.199 213.931 356.971 214.199 356.682 214.387C356.392 214.575 356.055 214.674 355.71 214.674C355.001 214.698 354.307 214.462 353.76 214.011C353.209 213.569 352.834 212.944 352.704 212.25C352.627 211.915 352.645 211.566 352.756 211.242C352.868 210.917 353.068 210.63 353.335 210.414Z" fill="black"/>
<path d="M327.413 196.67L321.985 185.985L316.496 175.339C314.652 171.8 312.774 168.278 310.803 164.815C309.828 163.079 308.841 161.35 307.791 159.667C307.265 158.827 306.725 157.997 306.152 157.2C305.637 156.419 305.014 155.714 304.301 155.107L304.284 155.096C304.233 155.059 304.189 155.012 304.156 154.958C304.123 154.905 304.1 154.845 304.09 154.782C304.08 154.72 304.082 154.656 304.096 154.594C304.111 154.532 304.137 154.474 304.174 154.423C304.215 154.367 304.267 154.32 304.326 154.286C304.58 154.102 304.778 153.853 304.901 153.565C305.04 153.23 305.119 152.873 305.133 152.51C305.144 151.727 305.02 150.948 304.767 150.206C304.505 149.437 304.183 148.69 303.803 147.972C303.435 147.24 302.993 146.545 302.562 145.842L302.551 145.824C302.532 145.793 302.519 145.759 302.513 145.723L301.783 141.407L301.606 140.325L301.519 139.782L301.48 139.51C301.466 139.438 301.446 139.368 301.419 139.3C301.307 138.995 301.126 138.72 300.889 138.496C300.653 138.272 300.368 138.107 300.056 138.012C299.46 137.909 298.917 138.525 298.878 139.169C298.861 139.853 298.881 140.614 298.885 141.332C298.896 142.06 298.902 142.789 298.943 143.512C298.985 143.72 298.974 143.934 298.91 144.136C298.846 144.338 298.733 144.52 298.58 144.667C298.25 144.921 297.838 145.045 297.422 145.015C296.655 144.958 295.916 144.698 295.282 144.262C294.964 144.062 294.669 143.807 294.393 143.608C294.105 143.403 293.799 143.215 293.487 143.036C292.219 142.334 290.909 141.709 289.565 141.165L287.543 140.351C286.894 140.069 286.224 139.839 285.539 139.664C285.249 139.584 284.942 139.59 284.655 139.681C284.368 139.771 284.113 139.942 283.92 140.173C283.708 140.775 283.734 141.436 283.993 142.02C284.014 142.086 284.015 142.156 283.997 142.222C283.98 142.289 283.943 142.349 283.892 142.395C283.841 142.442 283.778 142.472 283.711 142.484C283.643 142.496 283.573 142.488 283.51 142.461L283.504 142.458L281.753 141.715C281.233 141.439 280.664 141.27 280.078 141.217C279.556 141.175 279.038 141.332 278.628 141.656C278.332 141.929 278.382 142.434 278.607 142.959C278.64 143.036 278.651 143.121 278.638 143.204C278.625 143.287 278.589 143.365 278.534 143.429C278.479 143.492 278.407 143.539 278.326 143.563C278.246 143.588 278.16 143.589 278.079 143.568L278.063 143.563C277.404 143.384 276.735 143.244 276.059 143.143C275.435 143.024 274.795 143.018 274.169 143.127C273.92 143.204 273.692 143.339 273.505 143.522C273.319 143.705 273.178 143.929 273.096 144.177C272.981 144.604 273.274 145.077 273.733 145.484C273.833 145.573 273.898 145.696 273.913 145.829C273.929 145.963 273.895 146.097 273.819 146.207L273.811 146.219C273.648 146.42 273.529 146.653 273.461 146.903C273.393 147.152 273.377 147.413 273.414 147.669C273.508 147.993 274.064 148.238 274.685 148.309C275.051 148.339 275.414 148.391 275.773 148.464C276.138 148.551 276.497 148.661 276.848 148.793C277.527 149.052 278.187 149.356 278.825 149.703C280.073 150.388 281.279 151.145 282.437 151.972C283.596 152.79 284.713 153.638 285.814 154.548L285.747 154.498C287.682 155.729 289.615 156.973 291.568 158.172C292.542 158.767 293.527 159.372 294.506 159.901L294.864 160.082L295.4 160.319C295.504 160.413 295.592 160.523 295.66 160.646L295.783 160.86L295.991 161.265C296.253 161.797 296.49 162.325 296.725 162.855C298.585 167.091 300.207 171.398 301.796 175.723C303.382 180.047 304.878 184.406 306.213 188.817C306.88 191.022 307.524 193.236 308.054 195.482C308.652 197.714 309.014 200.003 309.132 202.311C309.132 202.319 309.131 202.327 309.128 202.335C309.125 202.342 309.12 202.349 309.115 202.354C309.109 202.36 309.103 202.365 309.095 202.368C309.088 202.371 309.08 202.373 309.072 202.373C309.056 202.372 309.041 202.366 309.03 202.355C309.018 202.343 309.011 202.328 309.01 202.312C308.786 200.031 308.323 197.779 307.627 195.594C306.983 193.392 306.291 191.204 305.55 189.03C304.063 184.686 302.463 180.379 300.813 176.093C299.146 171.816 297.423 167.549 295.593 163.358C295.36 162.838 295.123 162.318 294.875 161.82L294.687 161.458L294.596 161.299C294.587 161.269 294.492 161.17 294.601 161.28C294.654 161.311 294.595 161.3 294.793 161.382C294.849 161.399 294.907 161.407 294.966 161.406L294.923 161.403C294.866 161.398 294.81 161.389 294.754 161.377C294.694 161.362 294.636 161.343 294.578 161.32C294.473 161.283 294.417 161.251 294.334 161.216L293.922 161.009C292.875 160.449 291.897 159.852 290.906 159.253C288.938 158.048 286.986 156.83 285.052 155.575L284.991 155.53L284.984 155.524C282.892 153.731 280.641 152.132 278.257 150.749C277.67 150.421 277.062 150.132 276.437 149.885C276.135 149.767 275.826 149.668 275.511 149.589C275.186 149.521 274.857 149.471 274.526 149.442C274.118 149.392 273.721 149.276 273.35 149.1C272.896 148.894 272.541 148.518 272.361 148.052C272.216 147.602 272.221 147.117 272.376 146.67C272.5 146.277 272.686 145.906 272.925 145.569L273.003 146.304C272.687 146.023 272.426 145.687 272.23 145.313C272.016 144.882 271.961 144.39 272.075 143.923C272.2 143.487 272.445 143.095 272.783 142.793C273.099 142.492 273.485 142.275 273.905 142.161C274.668 142.027 275.449 142.041 276.206 142.203C276.919 142.326 277.625 142.492 278.318 142.699L277.774 143.303C277.628 142.956 277.55 142.584 277.542 142.207C277.54 141.991 277.582 141.777 277.666 141.578C277.749 141.379 277.872 141.198 278.026 141.047C278.316 140.807 278.65 140.627 279.01 140.517C279.369 140.407 279.747 140.37 280.122 140.407C280.802 140.479 281.461 140.686 282.06 141.014L283.794 141.798L283.305 142.237C283.151 141.853 283.076 141.443 283.082 141.03C283.089 140.617 283.179 140.209 283.345 139.831C283.466 139.641 283.624 139.476 283.809 139.347C283.995 139.219 284.205 139.129 284.426 139.083C284.825 138.992 285.238 138.983 285.641 139.058C286.365 139.257 287.071 139.516 287.752 139.833L289.765 140.704C291.097 141.31 292.426 141.925 293.704 142.662C294.023 142.85 294.337 143.046 294.641 143.267C294.953 143.498 295.208 143.725 295.507 143.917C296.076 144.318 296.741 144.562 297.434 144.624C297.753 144.653 298.071 144.566 298.33 144.378C298.442 144.271 298.523 144.136 298.565 143.987C298.608 143.838 298.61 143.681 298.573 143.531L298.502 141.339C298.489 140.6 298.458 139.902 298.469 139.129C298.501 138.716 298.669 138.325 298.947 138.017C299.093 137.856 299.275 137.732 299.478 137.656C299.681 137.579 299.899 137.553 300.114 137.577C300.524 137.648 300.899 137.851 301.183 138.155C301.467 138.432 301.694 138.762 301.852 139.126C301.893 139.228 301.924 139.333 301.944 139.441L301.986 139.709L302.078 140.245L302.279 141.318L303.142 145.604L303.094 145.485C303.557 146.189 304.03 146.886 304.436 147.632C304.859 148.375 305.221 149.15 305.519 149.952C305.83 150.781 305.993 151.659 306.002 152.545C306.023 153.043 305.922 153.538 305.706 153.988C305.491 154.437 305.169 154.827 304.767 155.122L304.793 154.3C305.643 154.941 306.379 155.719 306.971 156.604C307.571 157.424 308.13 158.264 308.671 159.112C309.749 160.81 310.77 162.536 311.753 164.281C313.694 167.786 315.534 171.338 317.34 174.906C319.159 178.467 320.861 182.085 322.575 185.696C324.282 189.31 325.931 192.951 327.523 196.618C327.529 196.633 327.53 196.649 327.524 196.664C327.519 196.679 327.507 196.691 327.493 196.698C327.479 196.704 327.462 196.705 327.447 196.7C327.432 196.695 327.42 196.684 327.413 196.67L327.413 196.67Z" fill="black"/>
<path d="M298.708 159.289C297.666 160.241 296.38 160.888 294.993 161.156C294.926 161.168 294.857 161.168 294.791 161.154C294.724 161.14 294.66 161.113 294.604 161.074C294.547 161.036 294.499 160.987 294.462 160.93C294.424 160.872 294.398 160.809 294.386 160.741C294.373 160.674 294.374 160.605 294.388 160.538C294.402 160.472 294.429 160.408 294.467 160.352C294.506 160.295 294.555 160.247 294.612 160.21C294.67 160.173 294.734 160.147 294.801 160.134C294.845 160.126 294.891 160.124 294.936 160.127C296.247 160.199 297.552 159.909 298.708 159.289Z" fill="black"/>
<path d="M297.757 147.048C298.084 148.042 298.32 149.014 298.653 149.947C298.806 150.414 298.992 150.869 299.211 151.309C299.433 151.757 299.715 152.174 300.049 152.546C299.55 152.343 299.12 152.001 298.809 151.561C298.493 151.13 298.247 150.653 298.078 150.146C297.731 149.152 297.621 148.091 297.757 147.048Z" fill="black"/>
<path d="M291.13 145.467L283.284 142.411C283.209 142.381 283.149 142.323 283.116 142.249C283.084 142.175 283.082 142.092 283.111 142.016C283.14 141.941 283.198 141.881 283.272 141.848C283.346 141.816 283.43 141.814 283.505 141.843L283.525 141.852L291.13 145.467Z" fill="black"/>
<path d="M287.337 146.972L278.077 143.492C278.039 143.478 278.005 143.457 277.975 143.43C277.946 143.402 277.922 143.369 277.905 143.333C277.889 143.297 277.879 143.257 277.878 143.217C277.877 143.177 277.883 143.137 277.897 143.1C277.912 143.062 277.933 143.028 277.96 142.998C277.988 142.969 278.021 142.946 278.057 142.929C278.094 142.913 278.133 142.904 278.173 142.902C278.213 142.901 278.253 142.908 278.291 142.922L278.308 142.929L287.337 146.972Z" fill="black"/>
<path d="M283.246 148.431C281.626 147.884 279.991 147.386 278.343 146.947C277.518 146.734 276.69 146.533 275.858 146.377C275.058 146.197 274.235 146.136 273.416 146.194L273.382 146.199C273.343 146.204 273.302 146.202 273.264 146.191C273.225 146.181 273.189 146.164 273.157 146.139C273.125 146.115 273.099 146.085 273.078 146.05C273.058 146.016 273.045 145.978 273.04 145.938C273.034 145.899 273.037 145.858 273.047 145.82C273.057 145.781 273.075 145.745 273.099 145.713C273.123 145.681 273.154 145.654 273.188 145.634C273.223 145.614 273.261 145.601 273.3 145.596L273.32 145.594C274.21 145.57 275.099 145.684 275.955 145.931C276.793 146.14 277.613 146.393 278.429 146.656C280.057 147.194 281.662 147.785 283.246 148.431Z" fill="black"/>
<path d="M392.243 202.272L395.727 189.319L397.442 182.84C397.715 181.759 397.992 180.675 398.229 179.594C398.452 178.513 398.617 177.42 398.725 176.321C399.224 171.891 399.634 167.435 400.099 162.986C400.327 160.76 400.578 158.535 400.851 156.309C400.989 155.197 401.145 154.084 401.319 152.97C401.426 152.412 401.518 151.857 401.641 151.296L401.849 150.45C401.946 150.141 402.06 149.838 402.191 149.541C402.222 149.463 402.281 149.399 402.356 149.361L402.427 149.326C403.426 148.811 404.375 148.207 405.263 147.52C406.169 146.835 407.02 146.081 407.81 145.266C409.395 143.635 410.737 141.785 411.794 139.771L411.801 139.758C411.821 139.719 411.847 139.684 411.879 139.653L417.661 133.949C417.839 133.738 417.954 133.482 417.992 133.209C418.045 132.908 418.053 132.602 418.016 132.299C417.997 132.045 417.88 131.809 417.689 131.641C417.475 131.501 417.217 131.448 416.965 131.49C416.688 131.537 416.43 131.661 416.221 131.85L415.503 132.552C415.012 133.028 414.514 133.496 414.003 133.952C413.002 134.915 411.874 135.738 410.651 136.397C410.472 136.476 410.281 136.526 410.086 136.547C409.961 136.563 409.834 136.545 409.718 136.495C409.602 136.444 409.502 136.363 409.429 136.261C409.339 136.077 409.288 135.876 409.28 135.671C409.272 135.467 409.307 135.263 409.382 135.072C409.626 134.41 409.972 133.789 410.407 133.233C411.238 132.142 412.15 131.115 413.134 130.16C414.148 129.29 414.948 128.199 415.47 126.97C415.703 126.364 415.624 125.677 415.029 125.448C414.74 125.334 414.426 125.298 414.119 125.343C413.812 125.388 413.522 125.513 413.278 125.705C412.153 126.435 411.143 127.327 410.279 128.353C409.834 128.859 409.399 129.376 408.986 129.911C408.557 130.434 408.204 131.007 407.71 131.529C407.465 131.786 407.194 132.017 406.902 132.219C406.754 132.326 406.596 132.42 406.432 132.5C406.328 132.566 406.209 132.605 406.086 132.614C405.963 132.623 405.84 132.602 405.727 132.552C405.654 132.506 405.596 132.441 405.557 132.365C405.533 132.302 405.515 132.238 405.502 132.173C405.491 132.069 405.492 131.964 405.507 131.86C405.53 131.677 405.57 131.497 405.627 131.322C405.729 130.987 405.852 130.659 405.993 130.338C406.272 129.702 406.605 129.09 406.99 128.511L408.146 126.83C408.903 125.722 409.567 124.553 410.13 123.335C410.408 122.768 410.571 122.153 410.61 121.523C410.608 121.398 410.58 121.275 410.527 121.162C410.474 121.048 410.398 120.948 410.304 120.866C410.221 120.782 410.12 120.721 410.008 120.687C409.895 120.653 409.777 120.647 409.662 120.671C409.086 120.847 408.576 121.191 408.198 121.66C407.759 122.145 407.372 122.675 407.043 123.241C406.694 123.81 406.413 124.388 406.109 125.016C405.798 125.639 405.46 126.238 405.106 126.829C404.406 128.026 403.612 129.166 402.733 130.238C402.616 130.373 402.493 130.507 402.357 130.639C402.287 130.709 402.214 130.774 402.137 130.836C402.086 130.884 402.029 130.925 401.967 130.957C401.918 130.983 401.868 131.006 401.817 131.026C401.728 131.048 401.637 131.053 401.546 131.041C401.386 131.014 401.242 130.926 401.144 130.796C401.09 130.724 401.048 130.644 401.018 130.56C400.979 130.447 400.95 130.332 400.933 130.214C400.908 130.025 400.894 129.835 400.892 129.645C400.891 128.944 400.931 128.243 401.012 127.547C401.224 126.185 401.51 124.836 401.868 123.505C402.011 122.884 402.078 122.248 402.069 121.61C402.075 121.004 401.97 120.402 401.758 119.834C401.655 119.594 401.489 119.428 401.464 119.447C401.45 119.464 401.453 119.442 401.428 119.448C401.402 119.466 401.372 119.477 401.34 119.48C401.243 119.541 401.153 119.611 401.07 119.689C400.652 120.149 400.297 120.663 400.016 121.218C399.384 122.37 398.896 123.595 398.562 124.866C398.393 125.504 398.253 126.151 398.134 126.808C398.004 127.478 397.942 128.106 397.757 128.867C397.403 130.237 396.882 131.559 396.207 132.802C395.837 133.538 395.241 134.136 394.507 134.51C394.266 134.607 394.006 134.647 393.747 134.63C393.615 134.623 393.484 134.606 393.356 134.579L393.02 134.434C392.638 134.245 392.301 133.978 392.028 133.651C390.98 132.414 390.752 130.939 390.089 130.009C389.952 129.797 389.769 129.618 389.554 129.485C389.339 129.352 389.098 129.269 388.847 129.241C388.568 129.206 388.285 129.209 388.007 129.251L387.576 129.327C387.469 129.374 387.328 129.405 387.243 129.452C387.062 129.571 387.104 129.539 387.088 129.668C387.129 129.908 387.219 130.136 387.352 130.34C387.658 130.867 388.073 131.405 388.468 131.981C388.679 132.277 388.872 132.586 389.045 132.906C389.233 133.252 389.374 133.621 389.465 134.003C389.63 134.72 389.714 135.399 389.806 136.084L390.279 140.131C390.37 140.795 390.467 141.458 390.602 142.095C390.664 142.404 390.746 142.708 390.845 143.007C390.908 143.225 391.007 143.43 391.138 143.615L391.278 143.834C391.319 143.897 391.346 143.969 391.356 144.044C391.367 144.119 391.361 144.195 391.34 144.268C390.072 148.521 388.73 152.752 387.429 156.995L383.497 169.716L379.565 182.436L375.538 195.128C375.533 195.143 375.522 195.156 375.508 195.164C375.494 195.171 375.478 195.173 375.462 195.168C375.447 195.164 375.434 195.153 375.426 195.139C375.419 195.125 375.417 195.109 375.421 195.093L379.03 182.276L382.735 169.488L386.44 156.699C387.684 152.439 388.889 148.167 390.166 143.916L390.368 144.569C390.183 144.397 390.031 144.192 389.918 143.966C389.821 143.789 389.743 143.603 389.685 143.411C389.568 143.065 389.472 142.712 389.398 142.355C389.249 141.662 389.148 140.979 389.052 140.296L388.565 136.242C388.476 135.58 388.387 134.908 388.244 134.3C388.079 133.718 387.802 133.174 387.429 132.698C387.055 132.153 386.631 131.617 386.25 130.969C386.015 130.599 385.867 130.18 385.819 129.744C385.797 129.601 385.808 129.455 385.85 129.316C385.873 129.161 385.933 129.015 386.024 128.888C386.176 128.651 386.388 128.458 386.638 128.329C386.838 128.235 387.044 128.155 387.255 128.091L387.827 127.985C388.222 127.926 388.623 127.921 389.018 127.971C389.443 128.024 389.852 128.167 390.218 128.39C390.584 128.613 390.898 128.911 391.139 129.265C392.018 130.584 392.229 131.962 392.988 132.813C393.148 133.012 393.346 133.175 393.572 133.295C393.616 133.314 393.658 133.337 393.699 133.362C393.74 133.372 393.776 133.36 393.813 133.369C393.885 133.406 393.965 133.343 394.047 133.339C394.516 133.062 394.895 132.656 395.139 132.169C395.767 131.023 396.255 129.805 396.592 128.542C396.734 127.983 396.828 127.256 396.96 126.591C397.088 125.911 397.241 125.23 397.426 124.555C397.795 123.196 398.329 121.887 399.017 120.657C399.357 120.001 399.79 119.396 400.301 118.861C400.465 118.708 400.649 118.575 400.847 118.468C400.976 118.418 401.108 118.375 401.242 118.34C401.399 118.321 401.557 118.326 401.712 118.353C401.957 118.431 402.18 118.564 402.365 118.742C402.549 118.921 402.69 119.14 402.776 119.382C403.046 120.089 403.179 120.841 403.167 121.597C403.169 122.321 403.082 123.042 402.907 123.744C402.537 125.033 402.235 126.341 402.002 127.662C401.915 128.315 401.866 128.973 401.854 129.632C401.853 129.781 401.861 129.931 401.877 130.079C401.884 130.13 401.894 130.18 401.908 130.229C401.915 130.26 401.912 130.232 401.896 130.22C401.843 130.162 401.773 130.123 401.697 130.108C401.648 130.098 401.598 130.102 401.552 130.12C401.539 130.12 401.526 130.123 401.515 130.129C401.475 130.162 401.53 130.119 401.55 130.101C401.607 130.058 401.66 130.011 401.712 129.961C401.822 129.858 401.931 129.744 402.039 129.623C402.9 128.605 403.681 127.521 404.374 126.382C404.728 125.812 405.069 125.232 405.375 124.643C405.674 124.052 405.999 123.411 406.372 122.827C406.738 122.223 407.166 121.659 407.649 121.143C408.145 120.558 408.812 120.144 409.556 119.96C409.778 119.924 410.004 119.942 410.218 120.011C410.431 120.08 410.626 120.198 410.785 120.356C410.94 120.501 411.065 120.675 411.153 120.868C411.244 121.067 411.291 121.282 411.293 121.501C411.25 122.232 411.055 122.945 410.723 123.597C410.122 124.839 409.42 126.028 408.621 127.152C407.787 128.208 407.06 129.343 406.449 130.542C406.311 130.841 406.19 131.149 406.087 131.462C406.036 131.609 405.999 131.761 405.976 131.915C405.959 131.996 405.959 132.08 405.974 132.161C406.067 132.159 406.158 132.134 406.239 132.088C406.381 132.02 406.517 131.939 406.645 131.848C406.914 131.665 407.163 131.455 407.389 131.221C407.837 130.758 408.211 130.171 408.647 129.645C409.068 129.106 409.512 128.585 409.969 128.074C410.867 127.023 411.917 126.11 413.083 125.366C413.392 125.176 413.73 125.038 414.083 124.958C414.459 124.886 414.849 124.939 415.192 125.109C415.374 125.187 415.536 125.306 415.663 125.459C415.791 125.611 415.88 125.791 415.924 125.985C415.987 126.355 415.951 126.734 415.819 127.085C415.29 128.376 414.469 129.527 413.42 130.446C412.46 131.394 411.572 132.412 410.764 133.492C410.363 134.012 410.045 134.59 409.821 135.206C409.721 135.459 409.718 135.74 409.814 135.995C409.864 136.129 410.185 136.083 410.467 135.956C411.628 135.303 412.692 134.49 413.628 133.541C414.121 133.08 414.604 132.606 415.078 132.124L415.802 131.384C416.097 131.108 416.464 130.923 416.861 130.85C417.285 130.77 417.724 130.859 418.085 131.098C418.426 131.366 418.648 131.757 418.701 132.188C418.758 132.56 418.758 132.938 418.703 133.31C418.652 133.715 418.49 134.098 418.235 134.417L412.53 140.3L412.615 140.182C412.088 141.244 411.484 142.266 410.807 143.239C410.127 144.211 409.37 145.127 408.544 145.978C407.725 146.836 406.84 147.629 405.899 148.352C404.956 149.092 403.946 149.743 402.882 150.296L403.117 150.08C403.047 150.308 402.951 150.489 402.885 150.745L402.699 151.528C402.586 152.059 402.498 152.609 402.399 153.149C402.221 154.244 402.055 155.342 401.908 156.448C401.615 158.657 401.346 160.872 401.102 163.094C400.589 167.534 400.174 171.983 399.59 176.43C399.455 177.553 399.262 178.669 399.01 179.772C398.744 180.871 398.445 181.948 398.148 183.028L396.295 189.479C395.011 193.764 393.689 198.036 392.359 202.306C392.354 202.321 392.344 202.334 392.33 202.342C392.316 202.349 392.299 202.351 392.284 202.347C392.269 202.342 392.256 202.332 392.248 202.318C392.24 202.304 392.238 202.288 392.242 202.272L392.243 202.272Z" fill="black"/>
<path d="M406.955 138.159C406.151 137.23 405.293 136.35 404.384 135.524C403.941 135.125 403.454 134.777 402.934 134.486C402.4 134.195 401.819 134.002 401.218 133.916C401.854 133.768 402.52 133.816 403.129 134.053C403.736 134.288 404.296 134.63 404.782 135.064C405.747 135.904 406.493 136.966 406.955 138.159Z" fill="black"/>
<path d="M399.085 135.623C399.244 136.604 399.246 137.604 399.09 138.586C399.017 139.079 398.903 139.564 398.748 140.038C398.606 140.526 398.356 140.976 398.018 141.356C398.14 140.886 398.229 140.408 398.286 139.926L398.489 138.496C398.617 137.525 398.817 136.565 399.085 135.623Z" fill="black"/>
<path d="M394.449 145.486C393.732 145.57 393.007 145.544 392.298 145.411C391.498 145.279 390.763 144.89 390.204 144.301L390.181 144.275C390.126 144.215 390.084 144.144 390.057 144.068C390.029 143.991 390.017 143.91 390.021 143.829C390.025 143.748 390.045 143.668 390.08 143.594C390.115 143.521 390.164 143.455 390.224 143.4C390.285 143.346 390.355 143.304 390.432 143.277C390.508 143.249 390.59 143.237 390.671 143.242C390.752 143.246 390.832 143.266 390.905 143.301C390.979 143.336 391.044 143.385 391.099 143.445C391.143 143.495 391.179 143.55 391.206 143.611C391.492 144.149 391.945 144.579 392.498 144.836C393.112 145.15 393.769 145.369 394.449 145.486Z" fill="black"/>
<path d="M314.417 300.461C314.437 306.3 314.439 312.139 314.366 317.976C314.304 323.813 314.264 329.65 314.131 335.486L313.784 352.993C313.643 358.828 313.447 364.661 313.196 370.494L312.966 370.003C315.502 371.962 318.235 373.65 321.122 375.04C324.006 376.469 327.07 377.501 330.231 378.106C333.392 378.715 336.645 378.67 339.787 377.972C342.915 377.24 345.83 375.794 348.305 373.747C348.339 373.718 348.378 373.697 348.421 373.685C348.463 373.672 348.508 373.668 348.552 373.674L348.569 373.676C352.016 374.084 355.485 374.281 358.956 374.264C362.417 374.258 365.874 374.018 369.302 373.545C372.703 373.098 376.036 372.231 379.223 370.962C382.368 369.769 385.139 367.762 387.254 365.146L387.084 365.75L385.173 349.329L383.359 332.896L381.531 316.465C380.906 310.989 380.294 305.512 379.617 300.04C379.614 300.018 379.62 299.996 379.633 299.978C379.647 299.96 379.666 299.949 379.688 299.945C379.709 299.942 379.732 299.947 379.75 299.959C379.768 299.972 379.78 299.991 379.784 300.013C380.842 305.428 381.729 310.875 382.562 316.328C383.423 321.777 384.155 327.244 384.897 332.709C385.651 338.172 386.315 343.647 386.977 349.121C387.613 354.599 388.208 360.081 388.763 365.568L388.764 365.582C388.785 365.794 388.724 366.005 388.594 366.173C386.27 368.992 383.238 371.141 379.808 372.4C376.485 373.663 373.012 374.492 369.477 374.868C365.98 375.266 362.459 375.4 358.942 375.271C355.435 375.171 351.937 374.864 348.467 374.35L348.731 374.279C346.143 376.329 343.128 377.772 339.908 378.503C336.69 379.178 333.374 379.232 330.136 378.664C326.906 378.105 323.759 377.149 320.764 375.819C317.749 374.506 314.882 372.875 312.212 370.955C312.14 370.903 312.082 370.835 312.042 370.756C312.002 370.677 311.981 370.59 311.982 370.502L311.982 370.464C312.03 364.626 312.125 358.79 312.266 352.955L312.79 335.452C312.949 329.618 313.199 323.785 313.427 317.952C313.644 312.119 313.937 306.288 314.248 300.457C314.249 300.435 314.259 300.414 314.275 300.399C314.291 300.384 314.312 300.376 314.334 300.377C314.356 300.377 314.377 300.386 314.393 300.402C314.408 300.418 314.417 300.439 314.417 300.461L314.417 300.461Z" fill="black"/>
<path d="M355.472 318.43C356.824 317.976 358.153 317.487 359.476 317.003C360.794 316.506 362.103 315.996 363.369 315.4C364.645 314.837 365.877 314.178 367.054 313.429C368.245 312.685 369.321 311.772 370.249 310.72C369.563 311.997 368.603 313.106 367.437 313.968C366.289 314.845 365.042 315.585 363.721 316.17C362.415 316.765 361.064 317.254 359.679 317.63C358.303 318.021 356.895 318.289 355.472 318.43Z" fill="black"/>
<path d="M348.518 374.013C348.79 369.204 349.265 364.411 349.812 359.626C350.357 354.841 351.064 350.075 351.835 345.318C352.664 340.573 353.563 335.833 354.742 331.156C355.831 326.456 357.336 321.862 359.239 317.428L358.074 320.843L357.083 324.308C356.466 326.628 355.862 328.952 355.376 331.305C354.854 333.649 354.385 336.005 353.912 338.36C353.488 340.725 353.042 343.085 352.669 345.459C351.83 350.192 351.138 354.95 350.456 359.71C350.107 362.089 349.778 364.471 349.469 366.857L348.518 374.013Z" fill="black"/>
<path d="M356.918 374.717L357.593 362.022C357.801 357.792 358.035 353.564 358.142 349.333C358.317 345.104 358.38 340.875 358.332 336.646C358.309 334.533 358.243 332.419 358.065 330.315C357.97 328.203 357.584 326.114 356.918 324.107C357.743 326.072 358.269 328.15 358.479 330.271C358.741 332.383 358.881 334.505 358.984 336.627C359.172 340.873 359.097 345.12 358.988 349.361C358.809 353.601 358.588 357.838 358.24 362.064C357.893 366.291 357.485 370.513 356.918 374.717Z" fill="black"/>
<path d="M313.344 330.246C316.074 329.912 318.821 329.721 321.571 329.673C321.654 329.671 321.737 329.686 321.815 329.716C321.892 329.746 321.963 329.791 322.023 329.848C322.084 329.905 322.132 329.974 322.166 330.05C322.199 330.126 322.218 330.208 322.22 330.291L322.22 330.294L322.22 330.322C322.247 331.714 322.279 333.106 322.218 334.498C322.16 335.89 322.044 337.283 321.954 338.675C321.752 341.455 321.751 344.246 321.95 347.027C322.022 348.419 322.137 349.811 322.196 351.203C322.256 352.595 322.282 353.987 322.316 355.379C322.412 358.164 322.398 360.947 322.306 363.732L322.304 363.794C322.299 363.959 322.234 364.116 322.122 364.238C322.01 364.359 321.859 364.437 321.695 364.456C320.873 364.558 320.046 364.606 319.218 364.6C318.392 364.601 317.567 364.535 316.751 364.401C315.92 364.276 315.112 364.026 314.356 363.659C313.968 363.483 313.619 363.23 313.332 362.916C313.044 362.602 312.823 362.232 312.682 361.83C312.679 361.82 312.679 361.81 312.68 361.8C312.681 361.79 312.684 361.781 312.689 361.772C312.694 361.763 312.701 361.756 312.709 361.75C312.717 361.743 312.726 361.739 312.736 361.736C312.752 361.732 312.769 361.733 312.785 361.74C312.801 361.746 312.814 361.758 312.822 361.772C313.228 362.418 313.868 362.883 314.608 363.068C315.336 363.287 316.091 363.404 316.851 363.415C317.623 363.425 318.395 363.396 319.164 363.327C319.929 363.25 320.717 363.152 321.448 363.007L320.836 363.732C320.745 360.948 320.731 358.164 320.826 355.379C320.86 353.987 320.887 352.595 320.946 351.203C321.005 349.811 321.12 348.419 321.193 347.027C321.392 344.246 321.39 341.455 321.188 338.675C321.099 337.283 320.983 335.89 320.925 334.499C320.863 333.107 320.896 331.714 320.922 330.322L321.571 330.971C318.82 330.923 316.074 330.732 313.344 330.398C313.325 330.396 313.308 330.387 313.296 330.373C313.284 330.359 313.277 330.341 313.277 330.322C313.277 330.304 313.284 330.286 313.296 330.272C313.308 330.258 313.325 330.249 313.344 330.246L313.344 330.246Z" fill="black"/>
<path d="M313.231 336.322C314.65 336.254 316.072 336.347 317.47 336.597C318.875 336.811 320.251 337.183 321.571 337.708C320.152 337.777 318.73 337.685 317.332 337.433C315.927 337.217 314.552 336.845 313.231 336.322Z" fill="black"/>
<path d="M316.026 372.228C315.027 373.323 314.082 374.463 313.183 375.63C312.337 376.862 311.409 378.036 310.406 379.144C309.875 379.684 309.312 380.182 308.734 380.665C308.132 381.147 307.51 381.563 306.893 381.981L303.198 384.438C298.305 387.698 293.699 391.369 289.428 395.41C287.298 397.427 285.274 399.553 283.324 401.746C281.393 403.97 279.58 406.235 277.757 408.601C275.912 410.947 273.938 413.189 271.845 415.317C269.767 417.472 267.416 419.278 265.206 421.264C266.09 420.067 267.089 418.953 268.058 417.834C269.02 416.702 270.037 415.629 271.016 414.536C272.989 412.355 274.825 410.056 276.586 407.705C280.017 402.817 283.937 398.291 288.285 394.199C290.457 392.145 292.745 390.219 295.14 388.431C297.52 386.634 299.993 384.962 302.548 383.423C303.814 382.645 305.111 381.914 306.382 381.168C307.017 380.795 307.644 380.414 308.232 380.015C308.822 379.589 309.401 379.141 309.943 378.66C310.999 377.639 311.986 376.549 312.897 375.397C313.879 374.282 314.923 373.224 316.026 372.228Z" fill="black"/>
<path d="M273.234 438.734C274.675 437.292 276.159 435.893 277.66 434.514C279.163 433.136 280.658 431.747 282.206 430.419C285.295 427.755 288.43 425.14 291.656 422.628C294.892 420.107 298.266 417.77 301.763 415.628C303.535 414.544 305.38 413.586 307.286 412.76C307.764 412.546 308.275 412.386 308.773 412.205C309.256 412.031 309.709 411.888 310.174 411.708C311.095 411.348 312.01 410.956 312.906 410.514C320.074 406.797 326.654 402.04 332.429 396.397C335.35 393.6 337.994 390.529 340.325 387.225C342.746 383.961 344.414 380.201 345.208 376.215C344.87 380.307 343.074 384.15 340.943 387.63C338.728 391.091 336.157 394.311 333.273 397.238C330.424 400.197 327.348 402.93 324.073 405.41C320.811 407.936 317.315 410.144 313.632 412.004C312.705 412.468 311.749 412.885 310.776 413.271C310.293 413.462 309.775 413.63 309.301 413.804C308.844 413.975 308.383 414.121 307.932 414.327C306.095 415.108 304.315 416.017 302.604 417.047C299.146 419.105 295.788 421.385 292.512 423.775C289.206 426.128 285.973 428.594 282.78 431.114C279.568 433.61 276.399 436.165 273.234 438.734Z" fill="black"/>
<path d="M318.5 388.662C317.664 390.047 316.789 391.34 316.09 392.707C315.727 393.37 315.446 394.074 315.252 394.805C315.045 395.543 315.053 396.326 315.275 397.06C315.004 396.736 314.804 396.358 314.687 395.952C314.571 395.546 314.541 395.119 314.599 394.701C314.686 393.867 314.937 393.058 315.336 392.32C316.09 390.87 317.173 389.617 318.5 388.662Z" fill="black"/>
<path d="M274.016 439.582C273.227 438.951 272.234 438.629 271.224 438.676C269.092 438.733 264.423 438.243 262.762 433.252C262.407 432.055 262.298 430.798 262.442 429.558C262.587 428.317 262.981 427.119 263.602 426.036C264.819 423.8 266.111 420.47 264.366 418.527C261.555 415.433 255.763 421.281 255.763 421.281C255.763 421.281 251.81 424.064 248.508 423.781C247.158 423.65 245.795 423.838 244.53 424.329C243.265 424.821 242.134 425.602 241.226 426.611C238.802 429.318 237.519 433.573 243.084 439.356C243.084 439.356 247.292 443.139 249.556 457.204C251.82 471.269 257.48 488.598 267.319 483.476C267.699 483.191 268.011 482.824 268.231 482.403C268.452 481.982 268.575 481.517 268.592 481.042C268.516 480.592 268.329 480.168 268.047 479.809C267.765 479.449 267.398 479.166 266.979 478.985C266.571 478.789 266.129 478.671 265.677 478.636C265.208 478.609 264.737 478.628 264.272 478.693C263.242 478.735 262.214 478.564 261.253 478.193C259.365 477.365 257.771 475.988 256.678 474.24C255.604 472.55 254.772 470.718 254.206 468.797L254.187 468.76V468.731C253.442 465.232 252.65 461.732 251.744 458.279C251.291 456.553 250.81 454.826 250.263 453.138C249.787 451.464 249.089 449.862 248.188 448.374C247.238 446.789 246.478 445.099 245.924 443.337C245.339 441.62 244.848 439.874 244.433 438.11C244.023 436.344 243.739 434.55 243.584 432.743C243.343 430.941 243.504 429.108 244.056 427.375C243.698 429.131 243.698 430.94 244.056 432.696C244.357 434.453 244.748 436.194 245.226 437.912C245.716 439.629 246.273 441.318 246.924 442.969C247.537 444.61 248.311 446.187 249.235 447.676C249.452 447.997 249.744 448.478 249.98 448.874C250.188 449.298 250.405 449.713 250.584 450.138C250.952 450.987 251.263 451.846 251.556 452.713C252.131 454.44 252.631 456.175 253.103 457.921C253.999 461.42 254.801 464.92 255.461 468.477C255.966 470.28 256.695 472.014 257.631 473.637C258.538 475.262 259.916 476.574 261.583 477.401C262.423 477.776 263.333 477.972 264.253 477.976C264.756 477.941 265.262 477.957 265.762 478.023C266.279 478.105 266.775 478.284 267.224 478.551C267.685 478.793 268.078 479.147 268.367 479.581C268.655 480.015 268.83 480.514 268.875 481.032C268.822 481.532 268.654 482.013 268.384 482.437C268.114 482.861 267.749 483.216 267.319 483.476C267.319 483.476 271.092 483.4 271.083 474.127C271.073 468.656 271.196 460.373 271.29 454.515C270.432 454.147 269.649 453.723 268.875 453.308L266.592 452.072C265.86 451.681 265.104 451.337 264.328 451.044C263.55 450.715 262.686 450.648 261.866 450.855C262.197 450.487 262.618 450.211 263.087 450.054C263.557 449.896 264.059 449.864 264.545 449.959C265.494 450.069 266.413 450.361 267.253 450.817C268.069 451.251 268.826 451.787 269.507 452.411C270.212 453.011 270.814 453.722 271.29 454.515C271.366 450.449 271.422 447.544 271.422 447.544C270.705 446.912 270.111 446.28 269.451 445.723C268.82 445.166 268.145 444.661 267.432 444.214C265.963 443.302 264.363 442.621 262.687 442.195C263.593 441.881 264.565 441.81 265.507 441.987C266.461 442.144 267.373 442.494 268.187 443.016C269.005 443.525 269.713 444.192 270.271 444.978C270.832 445.742 271.224 446.617 271.422 447.544C271.422 447.544 277.677 442.648 274.016 439.582ZM255.112 442.139C253.442 442.525 250.32 440.082 251.263 436.714C252.357 432.799 251.782 430.29 253.452 429.903C255.121 429.517 256.848 431.95 257.3 435.327C257.763 438.705 256.782 441.752 255.112 442.139ZM264.442 457.072C265.42 457.125 266.376 457.389 267.243 457.845C268.096 458.28 268.874 458.851 269.545 459.534C270.229 460.184 270.783 460.959 271.177 461.817C269.554 460.864 268.13 459.873 266.602 459.109C265.854 458.726 265.074 458.407 264.272 458.157C263.419 457.946 262.546 457.832 261.668 457.817C262.488 457.276 263.461 457.015 264.442 457.072Z" fill="black"/>
<path d="M359.161 374.243C358.332 375.472 357.562 376.737 356.842 378.022C356.184 379.364 355.436 380.66 354.604 381.901C354.157 382.513 353.672 383.087 353.17 383.649C352.645 384.213 352.089 384.715 351.54 385.218L348.239 388.185C343.871 392.12 339.846 396.419 336.206 401.036C334.391 403.341 332.697 405.738 331.085 408.19C329.497 410.671 328.031 413.176 326.571 415.781C325.085 418.369 323.457 420.874 321.694 423.283C319.951 425.716 317.887 427.844 315.988 430.129C316.689 428.817 317.516 427.57 318.313 426.322C319.1 425.063 319.951 423.854 320.761 422.63C322.397 420.186 323.881 417.646 325.282 415.064C327.968 409.73 331.191 404.684 334.9 400.004C336.75 397.657 338.736 395.42 340.845 393.304C342.94 391.18 345.144 389.168 347.449 387.275C348.589 386.32 349.766 385.409 350.916 384.487C351.49 384.026 352.055 383.558 352.579 383.078C353.101 382.571 353.609 382.044 354.075 381.49C354.972 380.326 355.791 379.105 356.525 377.833C357.335 376.587 358.215 375.389 359.161 374.243Z" fill="black"/>
<path d="M326.464 446.251C331.705 439.345 337.368 432.769 343.422 426.562C346.454 423.425 349.703 420.507 353.146 417.828C354.025 417.168 354.924 416.529 355.865 415.935C356.782 415.338 357.868 414.817 358.742 414.346C360.579 413.297 362.323 412.095 363.956 410.751C367.27 408.043 370.351 405.062 373.168 401.84C376.009 398.628 378.584 395.19 380.867 391.56C383.163 387.939 384.963 384.026 386.22 379.927C387.557 375.816 387.666 371.405 386.532 367.234C388.11 371.304 387.918 375.887 386.904 380.107C385.808 384.343 384.108 388.4 381.856 392.151C377.428 399.704 371.721 406.43 364.991 412.03C363.289 413.443 361.471 414.709 359.555 415.814C358.525 416.367 357.666 416.797 356.761 417.368C355.869 417.921 355 418.529 354.145 419.161C350.751 421.784 347.514 424.604 344.45 427.606C341.341 430.585 338.299 433.643 335.324 436.779C332.34 439.902 329.387 443.059 326.464 446.251Z" fill="black"/>
<path d="M363.993 390.146C363.366 391.637 362.688 393.043 362.194 394.497C361.932 395.206 361.755 395.943 361.67 396.694C361.572 397.455 361.693 398.228 362.019 398.922C361.704 398.641 361.451 398.296 361.277 397.911C361.103 397.526 361.011 397.108 361.008 396.686C360.974 395.848 361.104 395.011 361.392 394.224C361.928 392.679 362.818 391.282 363.993 390.146Z" fill="black"/>
<path d="M329.466 481.58C328.966 478.193 328.353 473.703 327.777 469.392C326.032 468.675 324.476 467.901 322.863 467.373C322.067 467.103 321.249 466.901 320.419 466.769C319.544 466.679 318.66 466.691 317.787 466.807C318.522 466.158 319.444 465.759 320.419 465.666C321.396 465.589 322.378 465.711 323.306 466.024C324.213 466.329 325.064 466.782 325.825 467.364C326.597 467.911 327.26 468.599 327.777 469.392C327.438 466.826 327.108 464.316 326.834 462.147C325.964 461.911 325.107 461.627 324.268 461.298L321.834 460.411C321.051 460.132 320.251 459.902 319.438 459.722C318.618 459.507 317.75 459.567 316.967 459.892C317.246 459.483 317.624 459.152 318.066 458.929C318.509 458.706 319 458.6 319.495 458.619C320.45 458.593 321.401 458.75 322.297 459.081C323.17 459.389 324.001 459.807 324.768 460.326C325.546 460.823 326.243 461.437 326.834 462.147C326.306 458.119 325.947 455.232 325.947 455.232C325.155 454.713 324.466 454.166 323.73 453.713C323.026 453.256 322.288 452.853 321.523 452.506C319.935 451.823 318.252 451.384 316.533 451.204C317.38 450.757 318.331 450.545 319.287 450.591C320.253 450.612 321.206 450.824 322.09 451.214C322.973 451.604 323.772 452.165 324.438 452.864C325.103 453.538 325.618 454.345 325.947 455.232C325.947 455.232 331.428 449.478 327.362 446.978C326.49 446.465 325.459 446.291 324.466 446.487C322.363 446.846 317.684 447.044 315.306 442.346C314.782 441.212 314.494 439.984 314.458 438.736C314.422 437.487 314.64 436.244 315.099 435.082C315.976 432.696 316.769 429.205 314.759 427.545C311.533 424.885 306.647 431.517 306.647 431.517C306.647 431.517 303.137 434.847 299.826 435.045C298.472 435.111 297.152 435.493 295.973 436.162C294.793 436.83 293.787 437.766 293.034 438.894C291.034 441.931 290.383 446.318 296.723 451.242C296.723 451.242 301.43 454.374 305.713 467.958C309.995 481.551 318.108 497.871 327.098 491.372C327.434 491.037 327.69 490.63 327.846 490.183C328.003 489.735 328.057 489.258 328.004 488.787C327.865 488.353 327.62 487.96 327.29 487.645C326.961 487.331 326.557 487.104 326.117 486.985C325.685 486.847 325.23 486.793 324.778 486.825C324.308 486.867 323.843 486.956 323.391 487.089C322.376 487.278 321.333 487.258 320.325 487.032C318.34 486.486 316.565 485.355 315.231 483.787C313.922 482.268 312.833 480.572 311.995 478.75L311.977 478.721L311.967 478.693C310.722 475.344 309.429 471.995 308.033 468.703C307.335 467.062 306.609 465.43 305.826 463.836C305.108 462.25 304.185 460.766 303.081 459.421C301.911 457.992 300.914 456.431 300.109 454.77C299.285 453.154 298.542 451.498 297.883 449.808C297.216 448.124 296.674 446.393 296.26 444.629C295.762 442.878 295.656 441.039 295.949 439.243C295.848 441.031 296.108 442.821 296.713 444.506C297.271 446.201 297.913 447.866 298.638 449.497C299.364 451.119 300.166 452.714 301.053 454.26C301.896 455.791 302.888 457.235 304.015 458.572C304.279 458.864 304.637 459.298 304.93 459.656C305.184 460.043 305.467 460.43 305.713 460.826C306.194 461.609 306.628 462.411 307.043 463.222C307.863 464.845 308.609 466.496 309.326 468.156C310.722 471.486 312.024 474.844 313.193 478.259C313.953 479.97 314.923 481.58 316.08 483.051C317.219 484.524 318.773 485.622 320.542 486.202C321.429 486.446 322.357 486.507 323.268 486.381C323.761 486.273 324.264 486.216 324.768 486.212C325.289 486.217 325.804 486.319 326.287 486.514C326.779 486.687 327.22 486.982 327.568 487.371C327.916 487.76 328.16 488.231 328.277 488.74C328.3 489.24 328.206 489.739 328.001 490.196C327.796 490.653 327.487 491.056 327.098 491.372C327.098 491.372 330.815 490.749 329.466 481.58ZM309.024 452.251C307.43 452.864 303.986 450.912 304.43 447.44C304.949 443.403 304.015 441.007 305.609 440.384C307.203 439.761 309.269 441.912 310.212 445.186C311.146 448.468 310.618 451.629 309.024 452.251Z" fill="black"/>
<path d="M252.351 172.708C252.87 177.183 253.642 181.625 254.662 186.013C255.65 190.365 257.023 194.621 258.764 198.731C259.615 200.776 260.622 202.754 261.773 204.646C262.897 206.548 264.192 208.343 265.641 210.01C267.107 211.67 268.74 213.174 270.516 214.497C272.35 215.791 274.311 216.896 276.368 217.793C274.144 217.248 272.005 216.4 270.011 215.273C268.026 214.085 266.197 212.654 264.565 211.014C261.359 207.67 258.805 203.758 257.032 199.478C255.25 195.252 253.971 190.83 253.225 186.305C252.427 181.819 252.134 177.259 252.351 172.708Z" fill="black"/>
<path d="M247.084 202.981C248.517 207.067 250.218 211.053 252.175 214.915C253.171 216.822 254.197 218.707 255.35 220.51C256.467 222.329 257.703 224.071 259.052 225.726C261.665 229.075 264.842 231.943 268.44 234.201C270.268 235.289 272.205 236.18 274.22 236.86C276.278 237.515 278.394 237.972 280.539 238.224C278.341 238.357 276.135 238.199 273.978 237.754C271.804 237.266 269.701 236.503 267.72 235.485C265.75 234.431 263.899 233.168 262.199 231.718C260.525 230.25 258.98 228.641 257.582 226.908C254.842 223.435 252.577 219.612 250.848 215.54C249.08 211.525 247.816 207.307 247.084 202.981Z" fill="black"/>
<path d="M209.794 391.748C208.432 396.042 207.313 400.409 206.443 404.829C205.558 409.204 205.063 413.648 204.965 418.11C204.902 420.325 205.008 422.541 205.282 424.739C205.527 426.935 205.971 429.103 206.609 431.217C207.263 433.333 208.136 435.374 209.213 437.31C210.354 439.243 211.689 441.054 213.198 442.717C211.393 441.307 209.789 439.656 208.433 437.811C207.111 435.912 206.03 433.857 205.215 431.692C203.664 427.327 202.939 422.711 203.079 418.081C203.188 413.495 203.836 408.939 205.012 404.505C206.125 400.088 207.729 395.809 209.794 391.748Z" fill="black"/>
<path d="M192.57 417.194C192.2 421.507 192.115 425.841 192.315 430.166C192.441 432.313 192.603 434.454 192.915 436.571C193.187 438.688 193.6 440.784 194.151 442.846C195.159 446.973 196.88 450.892 199.235 454.427C200.455 456.169 201.856 457.777 203.414 459.224C205.023 460.666 206.765 461.951 208.618 463.061C206.558 462.28 204.611 461.231 202.827 459.94C201.045 458.603 199.44 457.044 198.051 455.302C196.687 453.533 195.517 451.622 194.562 449.602C193.637 447.577 192.889 445.475 192.326 443.321C191.252 439.03 190.755 434.614 190.849 430.191C190.884 425.804 191.462 421.439 192.57 417.194Z" fill="black"/>
<path d="M432.652 274.36C432.843 278.912 432.523 283.47 431.698 287.951C430.925 292.472 429.621 296.886 427.814 301.101C426.016 305.371 423.439 309.268 420.213 312.593C418.572 314.223 416.734 315.643 414.743 316.82C412.742 317.935 410.598 318.771 408.37 319.302C410.434 318.417 412.401 317.325 414.242 316.041C416.026 314.728 417.668 313.234 419.143 311.582C420.602 309.924 421.907 308.136 423.042 306.242C424.205 304.356 425.223 302.384 426.087 300.344C427.851 296.245 429.249 291.997 430.263 287.651C431.309 283.269 432.106 278.832 432.652 274.36Z" fill="black"/>
<path d="M437.741 304.663C436.984 308.984 435.695 313.195 433.903 317.199C432.15 321.261 429.863 325.071 427.103 328.527C425.695 330.252 424.141 331.853 422.458 333.311C420.75 334.75 418.891 336.002 416.915 337.045C414.928 338.052 412.821 338.802 410.644 339.278C408.484 339.71 406.277 339.855 404.08 339.709C406.226 339.469 408.345 339.025 410.407 338.382C412.426 337.714 414.369 336.834 416.202 335.757C419.814 333.52 423.008 330.671 425.64 327.337C426.998 325.691 428.245 323.956 429.372 322.143C430.536 320.347 431.573 318.468 432.58 316.567C434.561 312.717 436.284 308.74 437.741 304.663Z" fill="black"/>
<path d="M252.845 95.9994C252.854 95.7944 252.82 95.5899 252.747 95.3982C252.674 95.2066 252.562 95.0318 252.42 94.8847L246.693 89.4997C246.254 89.1308 245.695 89.3112 245.41 89.8982C245.271 90.1935 245.219 90.5222 245.258 90.8462C245.298 91.1702 245.429 91.4763 245.636 91.7292L250.169 95.9994L245.636 100.27C245.361 100.576 245.21 100.973 245.21 101.384C245.21 101.796 245.361 102.193 245.636 102.499L250.169 106.77L245.636 111.04C245.361 111.346 245.21 111.743 245.21 112.155C245.21 112.566 245.361 112.963 245.636 113.269L251.362 118.654C251.801 119.064 252.391 118.897 252.681 118.285C252.827 117.984 252.88 117.647 252.833 117.315C252.787 116.984 252.643 116.674 252.42 116.425L247.886 112.154L252.42 107.884C252.694 107.578 252.845 107.181 252.845 106.77C252.845 106.358 252.694 105.961 252.42 105.655L247.886 101.384L252.42 97.1142C252.562 96.967 252.674 96.7923 252.747 96.6006C252.82 96.4089 252.854 96.2044 252.845 95.9994L252.845 95.9994Z" fill="black"/>
<path d="M218.722 329.328C218.707 329.717 218.828 330.1 219.064 330.41L222.708 334.557L219.064 338.703C218.89 338.964 218.782 339.263 218.749 339.574C218.715 339.885 218.758 340.2 218.872 340.492C219.1 341.072 219.561 341.247 219.914 340.868L224.517 335.639C224.74 335.322 224.859 334.944 224.859 334.557C224.859 334.169 224.74 333.791 224.517 333.474L220.873 329.328L224.517 325.181C224.74 324.864 224.859 324.486 224.859 324.099C224.859 323.711 224.74 323.333 224.517 323.016L220.873 318.87L224.517 314.723C224.691 314.463 224.799 314.164 224.833 313.853C224.866 313.541 224.824 313.226 224.709 312.935C224.482 312.354 224.02 312.179 223.667 312.558L219.064 317.787C218.842 318.104 218.722 318.482 218.722 318.87C218.722 319.257 218.842 319.635 219.064 319.952L222.708 324.099L219.064 328.245C218.825 328.554 218.704 328.938 218.722 329.328Z" fill="black"/>
<path d="M197.024 172.66C197.009 173.05 197.13 173.433 197.367 173.743L201.011 177.889L197.367 182.036C197.193 182.296 197.085 182.595 197.051 182.906C197.018 183.218 197.06 183.533 197.175 183.824C197.402 184.405 197.864 184.58 198.217 184.201L202.82 178.972C203.042 178.655 203.162 178.277 203.162 177.889C203.162 177.502 203.042 177.124 202.82 176.807L199.176 172.66L202.82 168.514C203.042 168.197 203.162 167.819 203.162 167.431C203.162 167.044 203.042 166.666 202.82 166.349L199.176 162.202L202.82 158.056C202.993 157.795 203.102 157.496 203.135 157.185C203.169 156.874 203.126 156.559 203.011 156.267C202.784 155.687 202.323 155.512 201.97 155.891L197.367 161.12C197.144 161.437 197.024 161.815 197.024 162.202C197.024 162.59 197.144 162.968 197.367 163.285L201.011 167.431L197.367 171.578C197.128 171.887 197.006 172.27 197.024 172.66Z" fill="black"/>
<path d="M458.954 378.907C458.939 379.318 459.085 379.717 459.36 380.022L463.686 384.292L459.36 388.563C459.156 388.819 459.027 389.126 458.986 389.451C458.946 389.776 458.997 390.106 459.132 390.404C459.402 391.002 459.95 391.183 460.369 390.792L465.834 385.407C466.096 385.095 466.24 384.7 466.24 384.292C466.24 383.885 466.096 383.49 465.834 383.178L461.508 378.907L465.834 374.637C466.096 374.325 466.24 373.93 466.24 373.522C466.24 373.115 466.096 372.72 465.834 372.408L461.508 368.137L465.834 363.867C466.038 363.611 466.167 363.303 466.207 362.978C466.247 362.653 466.197 362.323 466.062 362.025C465.792 361.428 465.244 361.247 464.825 361.638L459.36 367.023C459.097 367.335 458.954 367.729 458.954 368.137C458.954 368.545 459.097 368.94 459.36 369.252L463.686 373.522L459.36 377.793C459.222 377.943 459.116 378.118 459.046 378.31C458.976 378.501 458.945 378.704 458.954 378.907Z" fill="black"/>
<path d="M473.976 210.641L470.577 213.711C469.739 214.595 469.272 215.767 469.272 216.986C469.272 218.204 469.739 219.376 470.577 220.261L471.556 221.155C471.833 221.449 471.987 221.838 471.987 222.243C471.987 222.647 471.833 223.036 471.556 223.331L470.577 224.225C469.739 225.109 469.272 226.281 469.272 227.5C469.272 228.718 469.739 229.891 470.577 230.775L471.556 231.669C471.833 231.963 471.987 232.352 471.987 232.757C471.987 233.161 471.833 233.55 471.556 233.845L470.577 234.739C469.739 235.623 469.272 236.795 469.272 238.014C469.272 239.232 469.739 240.405 470.577 241.289L471.556 242.183C471.833 242.477 471.987 242.867 471.987 243.271C471.987 243.675 471.833 244.065 471.556 244.359L468.15 247.44C467.934 247.681 467.796 247.981 467.752 248.301C467.709 248.622 467.763 248.948 467.907 249.238C467.949 249.367 468.021 249.483 468.119 249.578C468.216 249.672 468.335 249.741 468.465 249.778C468.596 249.815 468.733 249.82 468.866 249.792C468.998 249.764 469.122 249.703 469.226 249.616L472.624 246.546C473.462 245.662 473.93 244.489 473.93 243.271C473.93 242.053 473.462 240.88 472.624 239.996L471.645 239.102C471.503 238.96 471.392 238.79 471.319 238.603C471.246 238.415 471.213 238.215 471.222 238.014C471.213 237.812 471.246 237.611 471.32 237.423C471.395 237.236 471.508 237.066 471.653 236.926L472.632 236.032C473.466 235.145 473.93 233.974 473.93 232.757C473.93 231.54 473.466 230.369 472.632 229.482L471.653 228.588C471.376 228.293 471.222 227.904 471.222 227.5C471.222 227.096 471.376 226.706 471.653 226.412L472.632 225.518C473.466 224.631 473.93 223.46 473.93 222.243C473.93 221.026 473.466 219.855 472.632 218.968L471.653 218.074C471.376 217.779 471.222 217.39 471.222 216.986C471.222 216.581 471.376 216.192 471.653 215.898L475.052 212.817C475.278 212.578 475.425 212.276 475.473 211.952C475.522 211.627 475.471 211.295 475.326 211.001C475.284 210.868 475.209 210.748 475.109 210.651C475.008 210.555 474.885 210.486 474.75 210.45C474.615 210.414 474.474 210.413 474.339 210.446C474.203 210.479 474.079 210.546 473.976 210.641V210.641Z" fill="black"/>
<path d="M433.919 95.0577L430.328 91.9021C430.037 91.6042 429.874 91.2041 429.874 90.7875C429.874 90.3708 430.037 89.9707 430.328 89.6728L431.36 88.7573C432.242 87.8631 432.736 86.658 432.736 85.4024C432.736 84.1468 432.242 82.9417 431.36 82.0475L430.328 81.1322C430.037 80.8342 429.874 80.4341 429.874 80.0175C429.874 79.6008 430.037 79.2007 430.328 78.9027L431.36 77.9872C432.242 77.0931 432.736 75.888 432.736 74.6324C432.736 73.3768 432.242 72.1717 431.36 71.2775L430.328 70.3621C430.037 70.0642 429.874 69.664 429.874 69.2473C429.874 68.8307 430.037 68.4305 430.328 68.1326L431.36 67.2172C432.242 66.3231 432.736 65.1179 432.736 63.8624C432.736 62.6068 432.242 61.4016 431.36 60.5075L427.778 57.3626C427.668 57.273 427.539 57.211 427.4 57.1819C427.262 57.1528 427.118 57.1575 426.982 57.1955C426.846 57.2335 426.72 57.3038 426.617 57.4003C426.514 57.4969 426.435 57.6169 426.388 57.7503C426.236 58.0464 426.179 58.382 426.225 58.7115C426.271 59.0409 426.417 59.3483 426.643 59.592L430.234 62.7477C430.526 63.0455 430.689 63.4457 430.689 63.8624C430.689 64.279 430.526 64.6792 430.234 64.9771L429.202 65.8924C428.321 66.7865 427.827 67.9917 427.827 69.2473C427.827 70.503 428.321 71.7081 429.202 72.6023L430.234 73.5177C430.526 73.8156 430.689 74.2157 430.689 74.6324C430.689 75.0491 430.526 75.4492 430.234 75.747L429.202 76.6626C428.321 77.5567 427.827 78.7618 427.827 80.0174C427.827 81.2731 428.321 82.4782 429.202 83.3723L430.234 84.2877C430.526 84.5856 430.689 84.9857 430.689 85.4024C430.689 85.8191 430.526 86.2193 430.234 86.5172L429.202 87.4326C428.321 88.3267 427.827 89.5319 427.827 90.7875C427.827 92.0431 428.321 93.2482 429.202 94.1423L432.785 97.2872C432.894 97.3819 433.024 97.4487 433.164 97.4817C433.304 97.5146 433.45 97.5129 433.59 97.4765C433.729 97.4402 433.858 97.3703 433.964 97.2731C434.07 97.1758 434.151 97.054 434.2 96.9184C434.355 96.6184 434.412 96.2767 434.362 95.9425C434.311 95.6082 434.157 95.2985 433.919 95.0577H433.919Z" fill="black"/>
<path d="M366.642 75.9155C366.715 76.9942 366.461 78.07 365.915 79.0028C365.368 79.9357 364.553 80.6825 363.577 81.1462C362.6 81.6099 361.506 81.7691 360.438 81.603C359.369 81.4369 358.376 80.9532 357.586 80.2148C356.796 79.4765 356.246 78.5176 356.009 77.4628C355.771 76.408 355.856 75.3061 356.253 74.3003C356.65 73.2945 357.34 72.4314 358.234 71.8231C359.128 71.2149 360.184 70.8896 361.266 70.8896C362.644 70.8459 363.984 71.3502 364.992 72.2922C365.999 73.2341 366.593 74.537 366.642 75.9155Z" fill="black"/>
<path d="M429.179 415.163C429.253 416.246 428.998 417.325 428.45 418.261C427.901 419.196 427.084 419.946 426.104 420.411C425.124 420.876 424.027 421.036 422.955 420.869C421.884 420.702 420.887 420.217 420.094 419.476C419.302 418.736 418.751 417.774 418.512 416.716C418.274 415.657 418.359 414.552 418.757 413.543C419.156 412.534 419.848 411.668 420.745 411.058C421.642 410.448 422.701 410.122 423.786 410.122C425.169 410.078 426.513 410.584 427.524 411.529C428.535 412.474 429.13 413.78 429.179 415.163Z" fill="black"/>
<path d="M490.396 159.288C490.455 160.155 490.251 161.02 489.812 161.77C489.372 162.519 488.718 163.119 487.933 163.492C487.148 163.865 486.269 163.993 485.411 163.859C484.552 163.726 483.753 163.337 483.119 162.744C482.484 162.15 482.042 161.38 481.851 160.532C481.66 159.684 481.729 158.799 482.048 157.991C482.367 157.182 482.921 156.489 483.64 156C484.358 155.511 485.207 155.25 486.076 155.25C487.184 155.214 488.261 155.619 489.071 156.376C489.881 157.133 490.357 158.181 490.396 159.288Z" fill="black"/>
<path d="M294.486 339.41C294.545 340.277 294.341 341.141 293.902 341.891C293.462 342.64 292.808 343.24 292.023 343.613C291.238 343.986 290.359 344.114 289.5 343.98C288.642 343.847 287.843 343.458 287.209 342.865C286.574 342.271 286.132 341.501 285.941 340.653C285.75 339.805 285.819 338.92 286.138 338.112C286.457 337.303 287.011 336.61 287.73 336.121C288.448 335.632 289.297 335.371 290.166 335.371C291.274 335.335 292.351 335.74 293.161 336.497C293.971 337.254 294.447 338.302 294.486 339.41Z" fill="black"/>
<path d="M341.083 155.376C344.725 155.376 344.731 149.716 341.083 149.716C337.441 149.716 337.435 155.376 341.083 155.376Z" fill="black"/>
<path d="M239.155 252.648C242.797 252.648 242.803 246.988 239.155 246.988C235.513 246.988 235.507 252.648 239.155 252.648Z" fill="black"/>
<path d="M458.954 325.016C462.596 325.016 462.602 319.356 458.954 319.356C455.312 319.356 455.306 325.016 458.954 325.016Z" fill="black"/>
<path d="M414.31 232.962C417.952 232.962 417.958 227.302 414.31 227.302C410.668 227.302 410.662 232.962 414.31 232.962Z" fill="black"/>
</svg>
